<?xml version="1.0" encoding="UTF-8" standalone="no"?>
<!DOCTYPE svg PUBLIC "-//W3C//DTD SVG 1.1//EN" "http://www.w3.org/Graphics/SVG/1.1/DTD/svg11.dtd">
<svg xmlns:dc="http://purl.org/dc/elements/1.1/" version="1.1" xmlns:xl="http://www.w3.org/1999/xlink" xmlns="http://www.w3.org/2000/svg" viewBox="-1692 -1783 1136 1136" width="1136" height="1136">
  <defs/>
  <metadata> Produced by OmniGraffle 7.9.4 
    <dc:date>2019-07-11 09:53:36 +0000</dc:date>
  </metadata>
  <g id="Canvas_5" stroke-opacity="1" stroke-dasharray="none" fill="none" stroke="none" fill-opacity="1">
    <title>MultiColor</title>
    <g id="Canvas_5: __TTauriIconBounds">
      <title>__TTauriIconBounds</title>
      <g id="Graphic_5">
        <title>__TTauriIconBounds</title>
        <rect x="-1690.9291" y="-1781.9291" width="1133.8583" height="1133.8583" stroke="red" stroke-linecap="round" stroke-linejoin="round" stroke-width="1"/>
      </g>
    </g>
    <g id="Canvas_5: Layer 3">
      <title>Layer 3</title>
      <g id="Graphic_7">
        <rect x="-1114.0158" y="-1488.189" width="28.346457" height="28.346457" fill="blue"/>
        <rect x="-1114.0158" y="-1488.189" width="28.346457" height="28.346457" stroke="gray" stroke-linecap="round" stroke-linejoin="round" stroke-width="1"/>
      </g>
      <g id="Graphic_8">
        <rect x="-1080" y="-1488.189" width="28.346457" height="28.346457" fill="red"/>
        <rect x="-1080" y="-1488.189" width="28.346457" height="28.346457" stroke="gray" stroke-linecap="round" stroke-linejoin="round" stroke-width="1"/>
      </g>
      <g id="Graphic_9">
        <rect x="-1046" y="-1488.189" width="28.346457" height="28.346457" fill="fuchsia"/>
        <rect x="-1046" y="-1488.189" width="28.346457" height="28.346457" stroke="gray" stroke-linecap="round" stroke-linejoin="round" stroke-width="1"/>
      </g>
      <g id="Graphic_10">
        <rect x="-1012" y="-1488.189" width="28.346457" height="28.346457" fill="lime"/>
        <rect x="-1012" y="-1488.189" width="28.346457" height="28.346457" stroke="gray" stroke-linecap="round" stroke-linejoin="round" stroke-width="1"/>
      </g>
      <g id="Graphic_11">
        <rect x="-978" y="-1488.189" width="28.346457" height="28.346457" fill="aqua"/>
        <rect x="-978" y="-1488.189" width="28.346457" height="28.346457" stroke="gray" stroke-linecap="round" stroke-linejoin="round" stroke-width="1"/>
      </g>
      <g id="Graphic_12">
        <rect x="-944" y="-1488.189" width="28.346457" height="28.346457" fill="yellow"/>
        <rect x="-944" y="-1488.189" width="28.346457" height="28.346457" stroke="gray" stroke-linecap="round" stroke-linejoin="round" stroke-width="1"/>
      </g>
      <g id="Graphic_13">
        <rect x="-1114.0158" y="-1453.8897" width="28.346457" height="28.346457" fill="#4040ff"/>
        <rect x="-1114.0158" y="-1453.8897" width="28.346457" height="28.346457" stroke="gray" stroke-linecap="round" stroke-linejoin="round" stroke-width="1"/>
      </g>
      <g id="Graphic_14">
        <rect x="-1080" y="-1453.8897" width="28.346457" height="28.346457" fill="#ff4040"/>
        <rect x="-1080" y="-1453.8897" width="28.346457" height="28.346457" stroke="gray" stroke-linecap="round" stroke-linejoin="round" stroke-width="1"/>
      </g>
      <g id="Graphic_17">
        <rect x="-1045.9843" y="-1453.8897" width="28.346457" height="28.346457" fill="#ff40ff"/>
        <rect x="-1045.9843" y="-1453.8897" width="28.346457" height="28.346457" stroke="gray" stroke-linecap="round" stroke-linejoin="round" stroke-width="1"/>
      </g>
      <g id="Graphic_18">
        <rect x="-1012" y="-1453.8897" width="28.346457" height="28.346457" fill="#40ff40"/>
        <rect x="-1012" y="-1453.8897" width="28.346457" height="28.346457" stroke="gray" stroke-linecap="round" stroke-linejoin="round" stroke-width="1"/>
      </g>
      <g id="Graphic_19">
        <rect x="-978.0158" y="-1453.8897" width="28.346457" height="28.346457" fill="#40ffff"/>
        <rect x="-978.0158" y="-1453.8897" width="28.346457" height="28.346457" stroke="gray" stroke-linecap="round" stroke-linejoin="round" stroke-width="1"/>
      </g>
      <g id="Graphic_20">
        <rect x="-944.0315" y="-1453.8897" width="28.346457" height="28.346457" fill="#ffff40"/>
        <rect x="-944.0315" y="-1453.8897" width="28.346457" height="28.346457" stroke="gray" stroke-linecap="round" stroke-linejoin="round" stroke-width="1"/>
      </g>
      <g id="Graphic_26">
        <rect x="-1114.0158" y="-1419.5905" width="28.346457" height="28.346457" fill="#8080ff"/>
        <rect x="-1114.0158" y="-1419.5905" width="28.346457" height="28.346457" stroke="gray" stroke-linecap="round" stroke-linejoin="round" stroke-width="1"/>
      </g>
      <g id="Graphic_25">
        <rect x="-1080" y="-1419.5905" width="28.346457" height="28.346457" fill="#ff8080"/>
        <rect x="-1080" y="-1419.5905" width="28.346457" height="28.346457" stroke="gray" stroke-linecap="round" stroke-linejoin="round" stroke-width="1"/>
      </g>
      <g id="Graphic_24">
        <rect x="-1045.9843" y="-1419.5905" width="28.346457" height="28.346457" fill="#ff80ff"/>
        <rect x="-1045.9843" y="-1419.5905" width="28.346457" height="28.346457" stroke="gray" stroke-linecap="round" stroke-linejoin="round" stroke-width="1"/>
      </g>
      <g id="Graphic_23">
        <rect x="-1012" y="-1419.5905" width="28.346457" height="28.346457" fill="#80ff80"/>
        <rect x="-1012" y="-1419.5905" width="28.346457" height="28.346457" stroke="gray" stroke-linecap="round" stroke-linejoin="round" stroke-width="1"/>
      </g>
      <g id="Graphic_22">
        <rect x="-978.0158" y="-1419.5905" width="28.346457" height="28.346457" fill="#80ffff"/>
        <rect x="-978.0158" y="-1419.5905" width="28.346457" height="28.346457" stroke="gray" stroke-linecap="round" stroke-linejoin="round" stroke-width="1"/>
      </g>
      <g id="Graphic_21">
        <rect x="-944.0315" y="-1419.5905" width="28.346457" height="28.346457" fill="#ffff80"/>
        <rect x="-944.0315" y="-1419.5905" width="28.346457" height="28.346457" stroke="gray" stroke-linecap="round" stroke-linejoin="round" stroke-width="1"/>
      </g>
      <g id="Graphic_32">
        <rect x="-1114.0158" y="-1385.2912" width="28.346457" height="28.346457" fill="#c0c0ff"/>
        <rect x="-1114.0158" y="-1385.2912" width="28.346457" height="28.346457" stroke="gray" stroke-linecap="round" stroke-linejoin="round" stroke-width="1"/>
      </g>
      <g id="Graphic_31">
        <rect x="-1080" y="-1385.2912" width="28.346457" height="28.346457" fill="#ffc0c0"/>
        <rect x="-1080" y="-1385.2912" width="28.346457" height="28.346457" stroke="gray" stroke-linecap="round" stroke-linejoin="round" stroke-width="1"/>
      </g>
      <g id="Graphic_30">
        <rect x="-1045.9843" y="-1385.2912" width="28.346457" height="28.346457" fill="#ffc0ff"/>
        <rect x="-1045.9843" y="-1385.2912" width="28.346457" height="28.346457" stroke="gray" stroke-linecap="round" stroke-linejoin="round" stroke-width="1"/>
      </g>
      <g id="Graphic_29">
        <rect x="-1012" y="-1385.2912" width="28.346457" height="28.346457" fill="#c0ffc0"/>
        <rect x="-1012" y="-1385.2912" width="28.346457" height="28.346457" stroke="gray" stroke-linecap="round" stroke-linejoin="round" stroke-width="1"/>
      </g>
      <g id="Graphic_28">
        <rect x="-978.0158" y="-1385.2912" width="28.346457" height="28.346457" fill="#c0ffff"/>
        <rect x="-978.0158" y="-1385.2912" width="28.346457" height="28.346457" stroke="gray" stroke-linecap="round" stroke-linejoin="round" stroke-width="1"/>
      </g>
      <g id="Graphic_27">
        <rect x="-944.0315" y="-1385.2912" width="28.346457" height="28.346457" fill="#ffffc0"/>
        <rect x="-944.0315" y="-1385.2912" width="28.346457" height="28.346457" stroke="gray" stroke-linecap="round" stroke-linejoin="round" stroke-width="1"/>
      </g>
      <g id="Graphic_38">
        <rect x="-1114.0158" y="-1350.992" width="28.346457" height="28.346457" fill="black"/>
        <rect x="-1114.0158" y="-1350.992" width="28.346457" height="28.346457" stroke="gray" stroke-linecap="round" stroke-linejoin="round" stroke-width="1"/>
      </g>
      <g id="Graphic_37">
        <rect x="-1080" y="-1350.992" width="28.346457" height="28.346457" fill="#333"/>
        <rect x="-1080" y="-1350.992" width="28.346457" height="28.346457" stroke="gray" stroke-linecap="round" stroke-linejoin="round" stroke-width="1"/>
      </g>
      <g id="Graphic_36">
        <rect x="-1045.9843" y="-1350.992" width="28.346457" height="28.346457" fill="#666"/>
        <rect x="-1045.9843" y="-1350.992" width="28.346457" height="28.346457" stroke="gray" stroke-linecap="round" stroke-linejoin="round" stroke-width="1"/>
      </g>
      <g id="Graphic_35">
        <rect x="-1012" y="-1350.992" width="28.346457" height="28.346457" fill="#999"/>
        <rect x="-1012" y="-1350.992" width="28.346457" height="28.346457" stroke="gray" stroke-linecap="round" stroke-linejoin="round" stroke-width="1"/>
      </g>
      <g id="Graphic_34">
        <rect x="-978.0158" y="-1350.992" width="28.346457" height="28.346457" fill="#ccc"/>
        <rect x="-978.0158" y="-1350.992" width="28.346457" height="28.346457" stroke="gray" stroke-linecap="round" stroke-linejoin="round" stroke-width="1"/>
      </g>
      <g id="Graphic_33">
        <rect x="-944.0315" y="-1350.992" width="28.346457" height="28.346457" fill="white"/>
        <rect x="-944.0315" y="-1350.992" width="28.346457" height="28.346457" stroke="gray" stroke-linecap="round" stroke-linejoin="round" stroke-width="1"/>
      </g>
      <g id="Graphic_44">
        <rect x="-1114.0158" y="-1316.6927" width="28.346457" height="28.346457" fill="#941100"/>
        <rect x="-1114.0158" y="-1316.6927" width="28.346457" height="28.346457" stroke="gray" stroke-linecap="round" stroke-linejoin="round" stroke-width="1"/>
      </g>
      <g id="Graphic_43">
        <rect x="-1080" y="-1316.6927" width="28.346457" height="28.346457" fill="#945200"/>
        <rect x="-1080" y="-1316.6927" width="28.346457" height="28.346457" stroke="gray" stroke-linecap="round" stroke-linejoin="round" stroke-width="1"/>
      </g>
      <g id="Graphic_42">
        <rect x="-1045.9843" y="-1316.6927" width="28.346457" height="28.346457" fill="#929000"/>
        <rect x="-1045.9843" y="-1316.6927" width="28.346457" height="28.346457" stroke="gray" stroke-linecap="round" stroke-linejoin="round" stroke-width="1"/>
      </g>
      <g id="Graphic_41">
        <rect x="-1012" y="-1316.6927" width="28.346457" height="28.346457" fill="#4e8f00"/>
        <rect x="-1012" y="-1316.6927" width="28.346457" height="28.346457" stroke="gray" stroke-linecap="round" stroke-linejoin="round" stroke-width="1"/>
      </g>
      <g id="Graphic_40">
        <rect x="-978.0158" y="-1316.6927" width="28.346457" height="28.346457" fill="#008f00"/>
        <rect x="-978.0158" y="-1316.6927" width="28.346457" height="28.346457" stroke="gray" stroke-linecap="round" stroke-linejoin="round" stroke-width="1"/>
      </g>
      <g id="Graphic_39">
        <rect x="-944.0315" y="-1316.6927" width="28.346457" height="28.346457" fill="#009051"/>
        <rect x="-944.0315" y="-1316.6927" width="28.346457" height="28.346457" stroke="gray" stroke-linecap="round" stroke-linejoin="round" stroke-width="1"/>
      </g>
      <g id="Graphic_45">
        <rect x="-910.0473" y="-1316.6927" width="28.346457" height="28.346457" fill="#009193"/>
        <rect x="-910.0473" y="-1316.6927" width="28.346457" height="28.346457" stroke="gray" stroke-linecap="round" stroke-linejoin="round" stroke-width="1"/>
      </g>
      <g id="Graphic_46">
        <rect x="-876.063" y="-1316.6927" width="28.346457" height="28.346457" fill="#005493"/>
        <rect x="-876.063" y="-1316.6927" width="28.346457" height="28.346457" stroke="gray" stroke-linecap="round" stroke-linejoin="round" stroke-width="1"/>
      </g>
      <g id="Graphic_54">
        <rect x="-1114.0158" y="-1282.3934" width="28.346457" height="28.346457" fill="#ff2600"/>
        <rect x="-1114.0158" y="-1282.3934" width="28.346457" height="28.346457" stroke="gray" stroke-linecap="round" stroke-linejoin="round" stroke-width="1"/>
      </g>
      <g id="Graphic_53">
        <rect x="-1080" y="-1282.3934" width="28.346457" height="28.346457" fill="#ff9300"/>
        <rect x="-1080" y="-1282.3934" width="28.346457" height="28.346457" stroke="gray" stroke-linecap="round" stroke-linejoin="round" stroke-width="1"/>
      </g>
      <g id="Graphic_52">
        <rect x="-1045.9843" y="-1282.3934" width="28.346457" height="28.346457" fill="#fffc00"/>
        <rect x="-1045.9843" y="-1282.3934" width="28.346457" height="28.346457" stroke="gray" stroke-linecap="round" stroke-linejoin="round" stroke-width="1"/>
      </g>
      <g id="Graphic_51">
        <rect x="-1012" y="-1282.3934" width="28.346457" height="28.346457" fill="#00fdff"/>
        <rect x="-1012" y="-1282.3934" width="28.346457" height="28.346457" stroke="gray" stroke-linecap="round" stroke-linejoin="round" stroke-width="1"/>
      </g>
      <g id="Graphic_50">
        <rect x="-978.0158" y="-1282.3934" width="28.346457" height="28.346457" fill="#0096ff"/>
        <rect x="-978.0158" y="-1282.3934" width="28.346457" height="28.346457" stroke="gray" stroke-linecap="round" stroke-linejoin="round" stroke-width="1"/>
      </g>
      <g id="Graphic_49">
        <rect x="-944.0315" y="-1282.3934" width="28.346457" height="28.346457" fill="#0432ff"/>
        <rect x="-944.0315" y="-1282.3934" width="28.346457" height="28.346457" stroke="gray" stroke-linecap="round" stroke-linejoin="round" stroke-width="1"/>
      </g>
      <g id="Graphic_48">
        <rect x="-910.0473" y="-1282.3934" width="28.346457" height="28.346457" fill="#9437ff"/>
        <rect x="-910.0473" y="-1282.3934" width="28.346457" height="28.346457" stroke="gray" stroke-linecap="round" stroke-linejoin="round" stroke-width="1"/>
      </g>
      <g id="Graphic_47">
        <rect x="-876.063" y="-1282.3934" width="28.346457" height="28.346457" fill="#ff40ff"/>
        <rect x="-876.063" y="-1282.3934" width="28.346457" height="28.346457" stroke="gray" stroke-linecap="round" stroke-linejoin="round" stroke-width="1"/>
      </g>
      <g id="Graphic_62">
        <rect x="-1114.0158" y="-1248.0941" width="28.346457" height="28.346457" fill="#ff7e79"/>
        <rect x="-1114.0158" y="-1248.0941" width="28.346457" height="28.346457" stroke="gray" stroke-linecap="round" stroke-linejoin="round" stroke-width="1"/>
      </g>
      <g id="Graphic_61">
        <rect x="-1080" y="-1248.0941" width="28.346457" height="28.346457" fill="#ffd579"/>
        <rect x="-1080" y="-1248.0941" width="28.346457" height="28.346457" stroke="gray" stroke-linecap="round" stroke-linejoin="round" stroke-width="1"/>
      </g>
      <g id="Graphic_60">
        <rect x="-1045.9843" y="-1248.0941" width="28.346457" height="28.346457" fill="#fffd78"/>
        <rect x="-1045.9843" y="-1248.0941" width="28.346457" height="28.346457" stroke="gray" stroke-linecap="round" stroke-linejoin="round" stroke-width="1"/>
      </g>
      <g id="Graphic_59">
        <rect x="-1012" y="-1248.0941" width="28.346457" height="28.346457" fill="#d5fc79"/>
        <rect x="-1012" y="-1248.0941" width="28.346457" height="28.346457" stroke="gray" stroke-linecap="round" stroke-linejoin="round" stroke-width="1"/>
      </g>
      <g id="Graphic_58">
        <rect x="-978.0158" y="-1248.0941" width="28.346457" height="28.346457" fill="#73fb79"/>
        <rect x="-978.0158" y="-1248.0941" width="28.346457" height="28.346457" stroke="gray" stroke-linecap="round" stroke-linejoin="round" stroke-width="1"/>
      </g>
      <g id="Graphic_57">
        <rect x="-944.0315" y="-1248.0941" width="28.346457" height="28.346457" fill="#73feff"/>
        <rect x="-944.0315" y="-1248.0941" width="28.346457" height="28.346457" stroke="gray" stroke-linecap="round" stroke-linejoin="round" stroke-width="1"/>
      </g>
      <g id="Graphic_56">
        <rect x="-910.0473" y="-1248.0941" width="28.346457" height="28.346457" fill="#7a81ff"/>
        <rect x="-910.0473" y="-1248.0941" width="28.346457" height="28.346457" stroke="gray" stroke-linecap="round" stroke-linejoin="round" stroke-width="1"/>
      </g>
      <g id="Graphic_55">
        <rect x="-876.063" y="-1248.0941" width="28.346457" height="28.346457" fill="#ff8ad8"/>
        <rect x="-876.063" y="-1248.0941" width="28.346457" height="28.346457" stroke="gray" stroke-linecap="round" stroke-linejoin="round" stroke-width="1"/>
      </g>
    </g>
  </g>
</svg>
