<?xml version="1.0" encoding="UTF-8" standalone="no"?>
<!DOCTYPE svg PUBLIC "-//W3C//DTD SVG 1.1//EN" "http://www.w3.org/Graphics/SVG/1.1/DTD/svg11.dtd">
<svg xmlns="http://www.w3.org/2000/svg" xmlns:dc="http://purl.org/dc/elements/1.1/" xmlns:xl="http://www.w3.org/1999/xlink" version="1.1" viewBox="-1692 -1783 1136 1136" width="1136" height="1136">
  <defs/>
  <metadata> Produced by OmniGraffle 7.9.4 
    <dc:date>2019-07-11 11:26:45 +0000</dc:date>
  </metadata>
  <g id="Application_Icon" fill="none" stroke-opacity="1" stroke-dasharray="none" fill-opacity="1" stroke="none">
    <title>Application Icon</title>
    <g id="Application_Icon: __TTauriIconBounds">
      <title>__TTauriIconBounds</title>
      <g id="Graphic_5">
        <title>__TTauriIconBounds</title>
        <rect x="-1690.9291" y="-1781.9291" width="1133.8583" height="1133.8583" stroke="red" stroke-linecap="round" stroke-linejoin="round" stroke-width="1"/>
      </g>
    </g>
    <g id="Application_Icon: Layer 4">
      <title>Layer 4</title>
      <g id="Graphic_12">
        <rect x="-1273.1619" y="-1466.9291" width="232.44095" height="218.26772" fill="white"/>
        <rect x="-1273.1619" y="-1466.9291" width="232.44095" height="218.26772" stroke="gray" stroke-linecap="round" stroke-linejoin="round" stroke-width="1"/>
      </g>
      <g id="Graphic_7">
        <path d="M -1248.8829 -1483.8853 L -1248.8829 -1483.8853 C -1268.3297 -1483.8853 -1284.0945 -1468.1206 -1284.0945 -1448.6737 L -1284.0945 -1264.7908 C -1284.0945 -1245.344 -1268.3297 -1229.5792 -1248.8829 -1229.5792 L -1065 -1229.5792 C -1045.5532 -1229.5792 -1029.7884 -1245.344 -1029.7884 -1264.7908 L -1029.7884 -1448.6737 C -1029.7884 -1468.1206 -1045.5532 -1483.8853 -1065 -1483.8853 Z M -1113.0794 -1268.312 L -1113.0794 -1268.312 C -1112.0072 -1269.3368 -1101.282 -1266.2246 -1104.2237 -1257.7826 C -1108.966 -1257.5256 -1126.5244 -1257.3914 -1126.5244 -1257.3914 C -1126.5244 -1257.3914 -1129.0191 -1261.1024 -1131.6105 -1265.2162 C -1129.8727 -1274.3926 -1129.4629 -1298.1207 -1129.4514 -1316.9596 C -1133.5253 -1315.9192 -1137.7231 -1315.166 -1141.987 -1314.6345 C -1148.0473 -1290.6282 -1142.2446 -1271.2214 -1139.2925 -1266.5514 C -1134.0146 -1265.563 -1130.8728 -1264.3944 -1132.5495 -1257.3114 C -1137.2918 -1257.0544 -1154.8501 -1256.9202 -1154.8501 -1256.9202 C -1154.8501 -1256.9202 -1156.3277 -1258.3638 -1158.919 -1262.4775 C -1159.848 -1272.1455 -1164.1017 -1280.3894 -1164.859 -1313.5313 C -1165.1123 -1313.5341 -1165.3655 -1313.5372 -1165.6186 -1313.5407 C -1184.3772 -1295.2189 -1193.2175 -1297.33 -1192.2527 -1286.3432 C -1191.578 -1276.9024 -1175.104 -1269.5133 -1171.4789 -1270.2682 C -1168.4326 -1269.4002 -1163.3512 -1268.0218 -1164.3964 -1260.6778 C -1166.496 -1260.5222 -1180.103 -1260.3314 -1185.9929 -1260.5213 C -1199.3916 -1265.9003 -1205.5479 -1274.3986 -1208.0166 -1283.9103 C -1209.0558 -1276.2183 -1209.9891 -1271.0092 -1201.4997 -1266.5514 C -1198.726 -1265.9542 -1193.4067 -1265.949 -1196.1651 -1257.3914 C -1203.5873 -1257.384 -1212.4355 -1256.887 -1217.4486 -1256.9219 C -1224.7123 -1268.0914 -1226.9965 -1280.346 -1226.9837 -1292.3211 C -1229.6576 -1282.4723 -1232.4726 -1258.0887 -1266.9796 -1261.3038 C -1253.063 -1274.325 -1253.0728 -1276.823 -1248.2 -1298.4716 C -1243.3273 -1320.1202 -1239.2072 -1359.97 -1217.6833 -1378.6759 C -1196.1594 -1397.3817 -1162.4789 -1393.8172 -1143.0093 -1393.7045 C -1123.2587 -1394.7415 -1131.68 -1409.8344 -1132.211 -1418.5482 C -1132.7421 -1427.2621 -1130.5893 -1427.4333 -1132.0545 -1437.9537 C -1133.3681 -1447.609 -1136.4748 -1454.9846 -1131.8589 -1459.4328 C -1127.7954 -1463.3487 -1115.1742 -1451.8672 -1108.1889 -1444.7613 C -1101.0947 -1446.628 -1100.5084 -1446.8907 -1096.53 -1446.7175 C -1092.0377 -1451.733 -1092.575 -1461.577 -1087.6879 -1461.1934 C -1082.7932 -1460.8092 -1078.4688 -1452.7558 -1078.8459 -1444.957 C -1069.7974 -1438.7442 -1067.3043 -1432.046 -1067.3043 -1432.046 C -1067.3043 -1432.046 -1057.3289 -1429.7553 -1048.1335 -1428.9161 C -1041.466 -1404.9114 -1068.4446 -1401.874 -1075.1291 -1386.8578 C -1082.0088 -1371.3449 -1074.3835 -1366.7911 -1092.148 -1343.2345 C -1109.9126 -1319.6779 -1116.8298 -1274.2448 -1113.0794 -1268.312 Z" fill="#710000"/>
      </g>
      <g id="Graphic_10">
        <path d="M -918.6981 -1295.3814 C -918.6981 -1291.9134 -916.727 -1290.1794 -912.7848 -1290.1794 L -912.7848 -1284.9774 L -954.1784 -1284.9774 L -954.1784 -1290.1794 C -952.9241 -1290.1794 -951.8041 -1290.6129 -950.8186 -1291.4799 C -949.833 -1292.3469 -949.3402 -1293.6474 -949.3402 -1295.3814 L -949.3402 -1410.4034 L -993.6906 -1410.4034 C -995.3034 -1410.4034 -996.8713 -1409.9217 -998.3944 -1408.9584 C -999.9176 -1407.995 -1000.6791 -1406.1647 -1000.6791 -1403.4674 L -1005.5174 -1403.4674 L -1005.5174 -1443.9274 L -1000.6791 -1443.9274 C -1000.6791 -1441.23 -999.9176 -1439.3997 -998.3944 -1438.4364 C -996.8713 -1437.473 -995.3034 -1436.9914 -993.6906 -1436.9914 L -874.3478 -1436.9914 C -872.735 -1436.9914 -871.1671 -1437.473 -869.6439 -1438.4364 C -868.1208 -1439.3997 -867.3592 -1441.23 -867.3592 -1443.9274 L -862.521 -1443.9274 L -862.521 -1403.4674 L -867.3592 -1403.4674 C -867.3592 -1406.1647 -868.1208 -1407.995 -869.6439 -1408.9584 C -871.1671 -1409.9217 -872.735 -1410.4034 -874.3478 -1410.4034 L -918.6981 -1410.4034 Z" fill="white"/>
      </g>
      <g id="Graphic_11">
        <path d="M -742.1191 -1295.3814 C -742.1191 -1291.9134 -740.148 -1290.1794 -736.20575 -1290.1794 L -736.20575 -1284.9774 L -777.5994 -1284.9774 L -777.5994 -1290.1794 C -776.3451 -1290.1794 -775.2251 -1290.6129 -774.2396 -1291.4799 C -773.254 -1292.3469 -772.7612 -1293.6474 -772.7612 -1295.3814 L -772.7612 -1410.4034 L -817.1116 -1410.4034 C -818.7244 -1410.4034 -820.2923 -1409.9217 -821.8154 -1408.9584 C -823.3386 -1407.995 -824.10015 -1406.1647 -824.10015 -1403.4674 L -828.9384 -1403.4674 L -828.9384 -1443.9274 L -824.10015 -1443.9274 C -824.10015 -1441.23 -823.3386 -1439.3997 -821.8154 -1438.4364 C -820.2923 -1437.473 -818.7244 -1436.9914 -817.1116 -1436.9914 L -697.76875 -1436.9914 C -696.156 -1436.9914 -694.5881 -1437.473 -693.0649 -1438.4364 C -691.5418 -1439.3997 -690.7802 -1441.23 -690.7802 -1443.9274 L -685.942 -1443.9274 L -685.942 -1403.4674 L -690.7802 -1403.4674 C -690.7802 -1406.1647 -691.5418 -1407.995 -693.0649 -1408.9584 C -694.5881 -1409.9217 -696.156 -1410.4034 -697.76875 -1410.4034 L -742.1191 -1410.4034 Z" fill="white"/>
      </g>
    </g>
  </g>
</svg>
